# xmcd
# Copyright (C) 1995-1998 Ti Kan
#
# Track frame offsets:
#       150
#       35015
#       75433
#       104583
#       134572
#       155909
#
# Disc length: 2762 seconds
#
# Revision: 0
# Processed by: cddbd v1.5.2PL0 Copyright (c) Steve Scherf et al.
# Submitted via: CD-Import v1.0
#
DISCID=4f0ac806
DTITLE=Viaticum - Trip Me Tender
DYEAR=11
DGENRE=
TTITLE0=Trip Me Tender
TTITLE1=Got To Carry
TTITLE2=Bury The Child
TTITLE3=The Deep
TTITLE4=Fuck The Bird
TTITLE5=Building For Destruction
EXTD=
EXTT0=
EXTT1=
EXTT2=
EXTT3=
EXTT4=
EXTT5=
PLAYORDER=
